# xmcd CD database file
#
# Track frame offsets:
#	150
#	19105
#	32742
#	49492
#	61524
#	80400
#	91378
#	111457
#	128616
#	150366
#	162146
#	173035
#	186487
#	200362
#	220987
#	233836
#	250245
#
# Disc length: 3528 seconds
#
# Revision: 0
# Processed by: cddbd v1.5.2PL0 Copyright (c) Steve Scherf et al.
# Submitted via: CDex 2.02
#
DISCID=de0dc611
DTITLE=Lightnin' Wells - Shake 'Em On Down
DYEAR=2007
DGENRE=Blues
TTITLE0=Shake 'Em On Down
TTITLE1=Don't You Leave Me Here
TTITLE2=Banjo Slim
TTITLE3=Thousand Women Blues
TTITLE4=John Henry
TTITLE5=Little Sadie
TTITLE6=Broke and Hungry
TTITLE7=Country Blues
TTITLE8=When They Ring The Golden Bells
TTITLE9=Music Box Waltz
TTITLE10=I'll See You In My Dreams
TTITLE11=Rattlesnakin' Daddy
TTITLE12=Pony Blues
TTITLE13=Prodigal Son
TTITLE14=Gonna Lay Down This World For My Lord
TTITLE15=Bye Bye Blackbird
TTITLE16=One Way Gal
EXTD=YEAR: 2007
EXTT0=
EXTT1=
EXTT2=
EXTT3=
EXTT4=
EXTT5=
EXTT6=
EXTT7=
EXTT8=
EXTT9=
EXTT10=
EXTT11=
EXTT12=
EXTT13=
EXTT14=
EXTT15=
EXTT16=
PLAYORDER=
